<svg width="20" height="20" viewBox="0 0 20 20" fill="none" xmlns="http://www.w3.org/2000/svg">
<path d="M0 8.09524C0 3.62436 3.62436 0 8.09524 0H11.9048C16.3756 0 20 3.62436 20 8.09524V11.9048C20 16.3756 16.3756 20 11.9048 20H8.09524C3.62436 20 0 16.3756 0 11.9048V8.09524Z" fill="#EDF3EC"/>
<path d="M7.375 9.41667H5.68333C5.35664 9.41667 5.19329 9.41667 5.06851 9.48025C4.95875 9.53617 4.86951 9.62541 4.81358 9.73517C4.75 9.85995 4.75 10.0233 4.75 10.35V15.25M12.625 9.41667H14.3167C14.6434 9.41667 14.8067 9.41667 14.9315 9.48025C15.0413 9.53617 15.1305 9.62541 15.1864 9.73517C15.25 9.85995 15.25 10.0233 15.25 10.35V15.25M12.625 15.25V6.61667C12.625 5.96327 12.625 5.63657 12.4978 5.38701C12.386 5.16749 12.2075 4.98901 11.988 4.87716C11.7384 4.75 11.4117 4.75 10.7583 4.75H9.24167C8.58827 4.75 8.26158 4.75 8.01201 4.87716C7.79249 4.98901 7.61401 5.16749 7.50216 5.38701C7.375 5.63657 7.375 5.96327 7.375 6.61667V15.25M15.8333 15.25H4.16667M9.41667 7.08333H10.5833M9.41667 9.41667H10.5833M9.41667 11.75H10.5833" stroke="#438361" stroke-width="1.4" stroke-linecap="round" stroke-linejoin="round"/>
</svg>
