<svg width="14" height="14" viewBox="0 0 14 14" fill="none" xmlns="http://www.w3.org/2000/svg">
<path d="M9.63336 5.1L6.23336 8.5M6.23336 5.1L9.63336 8.5M1.54136 7.344L3.98936 10.608C4.18882 10.874 4.28856 11.0069 4.41495 11.1028C4.5269 11.1878 4.65367 11.2512 4.78879 11.2898C4.94136 11.3333 5.10758 11.3333 5.44002 11.3333H9.74669C10.6988 11.3333 11.1748 11.3333 11.5385 11.148C11.8584 10.9851 12.1184 10.725 12.2814 10.4051C12.4667 10.0415 12.4667 9.56542 12.4667 8.61333V4.98666C12.4667 4.03457 12.4667 3.55853 12.2814 3.19488C12.1184 2.875 11.8584 2.61494 11.5385 2.45195C11.1748 2.26666 10.6988 2.26666 9.74669 2.26666H5.44002C5.10758 2.26666 4.94136 2.26666 4.78879 2.31023C4.65367 2.34883 4.5269 2.41221 4.41495 2.49716C4.28856 2.59306 4.18882 2.72604 3.98936 2.992L1.54136 6.256C1.39505 6.45108 1.32189 6.54862 1.29369 6.65574C1.2688 6.7503 1.2688 6.84969 1.29369 6.94425C1.32189 7.05138 1.39505 7.14892 1.54136 7.344Z" stroke="#C81E1E" stroke-width="1.2" stroke-linecap="round" stroke-linejoin="round"/>
</svg>
