<svg width="14" height="14" viewBox="0 0 14 14" fill="none" xmlns="http://www.w3.org/2000/svg">
<g clip-path="url(#clip0_48_7639)">
<path d="M6.99998 7.00002L4.50746 4.92292C4.13713 4.61432 3.95197 4.46001 3.81885 4.27086C3.70091 4.10326 3.61331 3.91625 3.56007 3.71835C3.49998 3.495 3.49998 3.25397 3.49998 2.7719V1.16669M6.99998 7.00002L9.4925 4.92292C9.86283 4.61432 10.048 4.46001 10.1811 4.27086C10.2991 4.10326 10.3866 3.91625 10.4399 3.71835C10.5 3.495 10.5 3.25397 10.5 2.7719V1.16669M6.99998 7.00002L4.50746 9.07712C4.13713 9.38573 3.95197 9.54003 3.81885 9.72918C3.70091 9.89678 3.61331 10.0838 3.56007 10.2817C3.49998 10.505 3.49998 10.7461 3.49998 11.2281V12.8334M6.99998 7.00002L9.4925 9.07712C9.86283 9.38573 10.048 9.54003 10.1811 9.72918C10.2991 9.89678 10.3866 10.0838 10.4399 10.2817C10.5 10.505 10.5 10.7461 10.5 11.2281V12.8334M2.33331 1.16669H11.6666M2.33331 12.8334H11.6666" stroke="#6B7280" stroke-width="1.2" stroke-linecap="round" stroke-linejoin="round"/>
</g>
<defs>
<clipPath id="clip0_48_7639">
<rect width="14" height="14" fill="white"/>
</clipPath>
</defs>
</svg>
