<svg width="14" height="14" viewBox="0 0 14 14" fill="none" xmlns="http://www.w3.org/2000/svg">
<path d="M1.16663 4.08333L5.9295 7.41734C6.31518 7.68731 6.50802 7.8223 6.71778 7.87459C6.90306 7.92078 7.09685 7.92078 7.28214 7.87459C7.4919 7.8223 7.68474 7.68732 8.07042 7.41734L12.8333 4.08333M3.96663 11.6667H10.0333C11.0134 11.6667 11.5034 11.6667 11.8778 11.4759C12.2071 11.3081 12.4748 11.0404 12.6426 10.7111C12.8333 10.3368 12.8333 9.84675 12.8333 8.86666V5.13333C12.8333 4.15324 12.8333 3.66319 12.6426 3.28884C12.4748 2.95956 12.2071 2.69185 11.8778 2.52407C11.5034 2.33333 11.0134 2.33333 10.0333 2.33333H3.96663C2.98653 2.33333 2.49649 2.33333 2.12214 2.52407C1.79286 2.69185 1.52514 2.95956 1.35736 3.28884C1.16663 3.66319 1.16663 4.15324 1.16663 5.13333V8.86666C1.16663 9.84675 1.16663 10.3368 1.35736 10.7111C1.52514 11.0404 1.79286 11.3081 2.12214 11.4759C2.49649 11.6667 2.98653 11.6667 3.96663 11.6667Z" stroke="#6B7280" stroke-width="1.225" stroke-linecap="round" stroke-linejoin="round"/>
</svg>
