<svg width="20" height="20" viewBox="0 0 20 20" fill="none" xmlns="http://www.w3.org/2000/svg">
<path d="M0 8.09524C0 3.62436 3.62436 0 8.09524 0H11.9048C16.3756 0 20 3.62436 20 8.09524V11.9048C20 16.3756 16.3756 20 11.9048 20H8.09524C3.62436 20 0 16.3756 0 11.9048V8.09524Z" fill="#E7F3F8"/>
<g clip-path="url(#clip0_48_7709)">
<path d="M12.9167 15.25V14.0833C12.9167 13.4645 12.6708 12.871 12.2332 12.4334C11.7957 11.9958 11.2022 11.75 10.5833 11.75H5.91667C5.29783 11.75 4.70434 11.9958 4.26675 12.4334C3.82917 12.871 3.58333 13.4645 3.58333 14.0833V15.25M16.4167 15.25V14.0833C16.4163 13.5663 16.2442 13.0641 15.9275 12.6555C15.6107 12.2469 15.1672 11.9551 14.6667 11.8258M12.3333 4.82583C12.8352 4.95434 13.2801 5.24624 13.5978 5.65551C13.9155 6.06479 14.0879 6.56815 14.0879 7.08625C14.0879 7.60435 13.9155 8.10771 13.5978 8.51698C13.2801 8.92626 12.8352 9.21816 12.3333 9.34667M10.5833 7.08333C10.5833 8.372 9.53866 9.41667 8.25 9.41667C6.96134 9.41667 5.91667 8.372 5.91667 7.08333C5.91667 5.79467 6.96134 4.75 8.25 4.75C9.53866 4.75 10.5833 5.79467 10.5833 7.08333Z" stroke="#347FA9" stroke-width="1.4" stroke-linecap="round" stroke-linejoin="round"/>
</g>
<defs>
<clipPath id="clip0_48_7709">
<rect width="14" height="14" fill="white" transform="translate(3 3)"/>
</clipPath>
</defs>
</svg>
