<svg width="16" height="16" viewBox="0 0 16 16" fill="none" xmlns="http://www.w3.org/2000/svg">
<g clip-path="url(#clip0_49_7964)">
<path d="M8.00002 10L6.00002 8M8.00002 10C8.93125 9.64583 9.82461 9.19915 10.6667 8.66667M8.00002 10V13.3333C8.00002 13.3333 10.02 12.9667 10.6667 12C11.3867 10.92 10.6667 8.66667 10.6667 8.66667M6.00002 8C6.35478 7.07962 6.80149 6.19738 7.33335 5.36667C8.11014 4.12466 9.19177 3.10203 10.4754 2.39606C11.7589 1.69009 13.2018 1.32425 14.6667 1.33333C14.6667 3.14667 14.1467 6.33333 10.6667 8.66667M6.00002 8H2.66669C2.66669 8 3.03335 5.98 4.00002 5.33333C5.08002 4.61333 7.33335 5.33333 7.33335 5.33333M3.00002 11C2.00002 11.84 1.66669 14.3333 1.66669 14.3333C1.66669 14.3333 4.16002 14 5.00002 13C5.47335 12.44 5.46669 11.58 4.94002 11.06C4.68089 10.8127 4.33955 10.6698 3.9815 10.6587C3.62346 10.6476 3.27394 10.7692 3.00002 11Z" stroke="#CB912E" stroke-width="1.6" stroke-linecap="round" stroke-linejoin="round"/>
</g>
<defs>
<clipPath id="clip0_49_7964">
<rect width="16" height="16" fill="white"/>
</clipPath>
</defs>
</svg>
