<svg width="14" height="14" viewBox="0 0 14 14" fill="none" xmlns="http://www.w3.org/2000/svg">
<g clip-path="url(#clip0_48_7754)">
<path d="M2.62496 12.8333V9.91666M2.62496 4.08333V1.16666M1.16663 2.625H4.08329M1.16663 11.375H4.08329M7.58329 1.75L6.57169 4.38017C6.40718 4.80788 6.32493 5.02174 6.19702 5.20163C6.08365 5.36106 5.94436 5.50036 5.78493 5.61372C5.60504 5.74163 5.39118 5.82389 4.96346 5.98839L2.33329 7L4.96346 8.0116C5.39118 8.17611 5.60504 8.25836 5.78493 8.38627C5.94436 8.49964 6.08365 8.63893 6.19702 8.79836C6.32493 8.97825 6.40718 9.19211 6.57169 9.61983L7.58329 12.25L8.5949 9.61983C8.7594 9.19211 8.84166 8.97825 8.96957 8.79836C9.08293 8.63893 9.22223 8.49964 9.38166 8.38627C9.56155 8.25836 9.77541 8.17611 10.2031 8.0116L12.8333 7L10.2031 5.98839C9.77541 5.82389 9.56155 5.74163 9.38166 5.61372C9.22223 5.50036 9.08293 5.36106 8.96957 5.20163C8.84166 5.02174 8.7594 4.80788 8.5949 4.38017L7.58329 1.75Z" stroke="white" stroke-width="1.4" stroke-linecap="round" stroke-linejoin="round"/>
</g>
<defs>
<clipPath id="clip0_48_7754">
<rect width="14" height="14" fill="white"/>
</clipPath>
</defs>
</svg>
