<svg xmlns="http://www.w3.org/2000/svg"  viewBox="0 0 50 50" width="50px" height="50px"><path d="M 25 2 C 12.296875 2 2 12.296875 2 25 C 2 29.816406 3.472656 34.273438 6 37.96875 L 21.875 33.4375 C 18.445313 32.164063 16 28.867188 16 25 C 16 20.890625 18.761719 17.417969 22.53125 16.34375 C 22.632813 16.242188 22.769531 16.160156 22.9375 16.125 L 49.15625 8.0625 C 49.5625 7.917969 49.820313 7.554688 49.8125 7.125 C 49.804688 6.695313 49.53125 6.320313 49.125 6.1875 C 48.597656 6.015625 36.03125 2 25 2 Z M 44 12.03125 L 28.0625 16.53125 C 31.523438 17.785156 34 21.109375 34 25 C 34 29.195313 31.109375 32.726563 27.21875 33.71875 C 27.117188 33.796875 27.015625 33.847656 26.875 33.875 L 0.84375 41.9375 C 0.4375 42.082031 0.179688 42.445313 0.1875 42.875 C 0.195313 43.304688 0.46875 43.679688 0.875 43.8125 C 1.40625 43.984375 13.96875 48 25 48 C 37.703125 48 48 37.703125 48 25 C 48 20.183594 46.527344 15.726563 44 12.03125 Z M 25 18 C 21.132813 18 18 21.132813 18 25 C 18 28.867188 21.132813 32 25 32 C 28.867188 32 32 28.867188 32 25 C 32 21.132813 28.867188 18 25 18 Z"/></svg>